<?xml version="1.0" encoding="iso-8859-1"?>
<!-- Uploaded to: SVG Repo, www.svgrepo.com, Generator: SVG Repo Mixer Tools -->
<svg height="800px" width="800px" version="1.1" id="Layer_1" xmlns="http://www.w3.org/2000/svg" xmlns:xlink="http://www.w3.org/1999/xlink" 
	 viewBox="0 0 512 512" xml:space="preserve">
<path style="fill:#64555A;" d="M40.205,383.879c5.678,15.178,57.723,63.939,215.795,63.939s210.118-48.761,215.795-63.939H40.205z"
	/>
<g>
	<path style="fill:#74666B;" d="M455.811,263.992c-16.984-16.984-65.938-47.954-199.811-47.954s-182.827,30.97-199.811,47.954
		c-16.983,16.984-67.936,77.593-39.962,103.901C48.664,398.399,256,399.864,256,399.864s207.336-1.464,239.772-31.97
		C523.746,341.585,472.794,280.977,455.811,263.992z"/>
	<path style="fill:#74666B;" d="M423.843,240.415c-0.019-0.348-2.296-36.747-28.977-58.092
		c-7.772-6.217-11.597-12.927-15.296-19.416c-3.936-6.904-7.653-13.425-16.633-20.514c-18.22-14.384-51.476-14.339-97.527-14.272
		c-3.084,0.004-6.222,0.009-9.41,0.009c-3.188,0-6.326-0.004-9.41-0.009c-46.046-0.066-79.306-0.111-97.527,14.272
		c-8.979,7.089-12.697,13.61-16.633,20.514c-3.699,6.489-7.524,13.199-15.296,19.416c-26.849,21.479-28.959,57.728-28.977,58.092
		c-0.048,0.969-0.274,1.911-0.654,2.786c29.722-13.917,80.948-27.162,168.497-27.162s138.775,13.245,168.497,27.162
		C424.117,242.325,423.891,241.383,423.843,240.415z"/>
</g>
<path style="fill:#7C665D;" d="M471.795,281.978c-0.526,0-1.042-0.214-1.414-0.585l-39.963-39.963
	c-0.352-0.352-0.559-0.818-0.583-1.314c-0.022-0.412-2.426-39.441-31.222-62.477c-6.875-5.5-10.253-11.426-13.83-17.7
	c-4.049-7.103-8.234-14.443-18.129-22.254c-18.352-14.488-48.438-15.572-92.242-15.572c-2.945,0-15.228,0.018-18.413,0.018
	c-3.185,0-15.449-0.018-18.391-0.018c-43.818,0-73.912,1.084-92.264,15.572c-9.895,7.812-14.08,15.151-18.126,22.249
	c-3.58,6.279-6.958,12.205-13.833,17.705c-28.946,23.157-31.202,62.089-31.222,62.479c-0.025,0.494-0.232,0.961-0.583,1.312
	l-39.963,39.963c-0.373,0.373-0.888,0.586-1.414,0.586H8.235c-0.63,0-1.23-0.303-1.606-0.809s-0.491-1.168-0.308-1.772
	c0.271-0.896,6.898-22.132,29.003-35.466l8.366-5.046l-10.408-6.505c-2.654-1.656-5.183-3.233-7.055-4.439
	c-3.483-2.247-3.867-2.692-3.994-3.619c-0.081-0.59,0.11-1.204,0.512-1.642c1.86-2.029,3.852-4.024,5.916-5.924l1.833-1.688
	l0.098-2.489c0.972-24.577,11.861-57.306,27.095-81.444l6.375-10.1l-11.908,0.915c-1.415,0.109-2.708,0.162-3.955,0.162
	c-1.103,0-2-0.897-2-2s0.897-2,2-2c6.913,0,14.507-1.537,23.215-4.699l0.208-0.075l0.202-0.091c0.16-0.072,0.239-0.097,0.259-0.104
	l0.216-0.062l0.21-0.079c9.476-3.549,18.935-8.481,27.28-12.834c2.011-1.048,3.973-2.071,5.88-3.047l0.184-0.094l0.176-0.106
	C159.363,64.839,207.402,62.182,256,62.182s96.637,2.657,149.973,34.74l0.176,0.106l0.184,0.094
	c1.908,0.976,3.869,1.999,5.881,3.047c8.346,4.352,17.807,9.285,27.275,12.832l0.209,0.079l0.214,0.063
	c0.028,0.008,0.11,0.035,0.259,0.102l0.208,0.094l0.214,0.078c8.707,3.16,16.299,4.696,23.21,4.696c1.103,0,2,0.897,2,2
	s-0.897,2-2,2c-1.247,0-2.541-0.052-3.955-0.162l-11.909-0.915l6.375,10.1c15.234,24.136,26.123,56.866,27.095,81.443l0.098,2.489
	l1.832,1.688c2.063,1.9,4.054,3.894,5.916,5.924c0.401,0.438,0.593,1.053,0.512,1.644c-0.126,0.926-0.51,1.371-3.994,3.618
	c-1.871,1.207-4.4,2.784-7.054,4.439l-10.412,6.501l8.37,5.049c22.105,13.335,28.732,34.57,29.003,35.467
	c0.182,0.603,0.067,1.265-0.309,1.771s-0.976,0.809-1.606,0.809H471.795z"/>
<path d="M84.163,176.084c7.399,0,11.996-7.659,11.996-19.989s-4.597-19.989-11.996-19.989s-11.996,7.659-11.996,19.989
	S76.764,176.084,84.163,176.084z"/>
<path d="M486.484,287.978h17.281c2.532,0,4.914-1.199,6.423-3.232s1.967-4.66,1.234-7.084c-0.344-1.139-7.632-24.381-31.647-38.869
	c0.753-0.47,1.47-0.917,2.119-1.322c2.683-1.673,5.239-3.268,7.131-4.488c3.574-2.306,6.157-3.971,6.687-7.848
	c0.322-2.357-0.427-4.757-2.034-6.511c-2.047-2.233-4.147-4.325-6.273-6.283c-1.034-26.145-12.712-60.161-28.017-84.409
	c1.474,0.113,2.946,0.179,4.415,0.179c4.418,0,8-3.582,8-8s-3.582-8-8-8c-6.81,0-13.971-1.726-21.163-4.336
	c-0.342-0.154-0.69-0.289-1.047-0.393c-9.058-3.393-18.14-8.119-26.605-12.533c-2.026-1.057-4.001-2.086-5.922-3.069
	C354.425,58.913,305.481,56.182,256,56.182s-98.425,2.73-153.065,35.599c-1.921,0.983-3.896,2.012-5.922,3.069
	c-8.467,4.415-17.55,9.142-26.609,12.534c-0.354,0.103-0.699,0.237-1.039,0.39c-7.194,2.612-14.357,4.338-21.167,4.338
	c-4.418,0-8,3.582-8,8s3.582,8,8,8c1.469,0,2.941-0.066,4.415-0.179c-15.305,24.249-26.983,58.264-28.017,84.409
	c-2.128,1.959-4.229,4.053-6.277,6.287c-1.605,1.753-2.353,4.151-2.031,6.507c0.53,3.876,3.113,5.542,6.687,7.848
	c1.892,1.22,4.448,2.814,7.131,4.488c0.649,0.405,1.366,0.852,2.119,1.323C8.209,253.28,0.921,276.523,0.577,277.662
	c-0.733,2.424-0.275,5.051,1.234,7.084s3.892,3.232,6.423,3.232h17.281C12.645,305.68-0.3,328.502,0.005,348.392
	c0.157,10.252,3.771,18.774,10.742,25.33c4.549,4.278,11.696,8.105,21.583,11.537c0.084,0.477,0.207,0.953,0.382,1.422
	c3.897,10.419,20.677,27.731,55.14,42.232c42.427,17.853,99,26.904,168.148,26.904s125.721-9.052,168.148-26.904
	c34.463-14.501,51.243-31.813,55.14-42.232c0.176-0.469,0.298-0.946,0.382-1.422c9.886-3.432,17.034-7.259,21.583-11.537
	c6.97-6.556,10.584-15.078,10.741-25.33C512.3,328.502,499.355,305.68,486.484,287.978z M20.884,271.978
	c4.968-8.028,14.187-18.707,30.035-24.439c2.88-1.042,4.956-3.686,5.278-6.732c0.555-5.248-3.05-7.6-8.04-10.855
	c-2.728-1.78-6.213-3.954-9.583-6.056c-0.543-0.339-1.119-0.698-1.706-1.064c0.23-0.202,0.459-0.387,0.689-0.584
	c0.042-0.034,0.082-0.07,0.123-0.104c11.4-9.748,22.504-14.088,26.502-14.088c4.418,0,8-3.582,8-8s-3.582-8-8-8
	c-5.594,0-13.524,2.526-22.1,7.414c4.709-27.456,19.438-60.957,35.091-77.561c9.7-3.727,18.981-8.564,27.238-12.87
	c2.059-1.074,4.068-2.122,6.017-3.118c0.117-0.06,0.225-0.13,0.338-0.195c0.051-0.029,0.104-0.049,0.153-0.079
	C162.221,74.7,206.976,72.182,256,72.182s93.779,2.518,145.081,33.463c0.05,0.03,0.103,0.049,0.153,0.079
	c0.112,0.065,0.221,0.135,0.338,0.195c1.949,0.996,3.958,2.043,6.017,3.118c8.257,4.306,17.538,9.143,27.238,12.87
	c15.652,16.604,30.381,50.104,35.091,77.56c-8.575-4.887-16.506-7.413-22.1-7.413c-4.418,0-8,3.582-8,8s3.582,8,8,8
	c3.998,0,15.099,4.338,26.495,14.082c0.044,0.038,0.088,0.077,0.134,0.114c0.229,0.197,0.457,0.381,0.686,0.582
	c-0.587,0.367-1.163,0.726-1.706,1.064c-3.371,2.102-6.856,4.276-9.583,6.056c-4.99,3.256-8.595,5.608-8.04,10.855
	c0.322,3.046,2.398,5.69,5.278,6.732c15.853,5.734,25.072,16.418,30.037,24.439h-17.244c-6.697-7.887-11.766-13.001-12.407-13.642
	c-4.833-4.833-11.853-10.51-21.9-16.275c0.206-0.778,0.298-1.599,0.256-2.445c-0.089-1.779-2.551-43.857-34.962-69.787
	c-5.382-4.306-8.034-8.957-11.391-14.846c-4.31-7.56-9.195-16.13-20.619-25.147c-22.59-17.835-58.19-17.79-107.463-17.715
	c-3.077,0.004-6.207,0.009-9.388,0.009c-3.181,0-6.311-0.004-9.388-0.009c-49.276-0.075-84.874-0.12-107.463,17.715
	c-11.423,9.018-16.309,17.587-20.619,25.147c-3.357,5.889-6.009,10.541-11.391,14.846c-32.412,25.93-34.873,68.008-34.962,69.787
	c-0.042,0.846,0.051,1.667,0.256,2.445c-10.048,5.765-17.067,11.441-21.9,16.275c-0.641,0.641-5.71,5.755-12.407,13.642H20.884z
	 M256,208.038c-83.697,0-135.358,12.111-167.019,25.793c1.932-11.505,8.228-35.568,28.153-51.508
	c7.772-6.217,11.597-12.927,15.296-19.416c3.936-6.904,7.653-13.425,16.633-20.514c18.221-14.384,51.48-14.338,97.527-14.272
	c3.084,0.004,6.222,0.009,9.41,0.009s6.326-0.004,9.41-0.009c46.039-0.071,79.306-0.111,97.527,14.272
	c8.979,7.089,12.697,13.61,16.633,20.514c3.699,6.489,7.524,13.199,15.296,19.416c19.802,15.842,26.158,39.964,28.128,51.498
	C391.331,220.144,339.676,208.038,256,208.038z M417.943,414.166C390.132,425.868,339.46,439.818,256,439.818
	s-134.132-13.95-161.943-25.652c-18.775-7.9-30.625-16.044-37.674-22.433c3.042,0.648,6.218,1.279,9.542,1.893
	c21.515,3.969,49.021,7.222,81.756,9.67c55.516,4.151,107.742,4.563,108.263,4.567c0.019,0,0.037,0,0.056,0c0.001,0,0.001,0,0.002,0
	c0.019,0,0.037,0,0.056,0c0.521-0.004,52.747-0.416,108.263-4.567c32.734-2.448,60.241-5.701,81.756-9.67
	c3.324-0.613,6.5-1.244,9.542-1.893C448.567,398.122,436.718,406.266,417.943,414.166z M490.292,362.066
	c-6.798,6.394-32.349,18.178-127.087,25.268c-54.196,4.056-105.252,4.513-107.205,4.528c-1.949-0.015-52.934-0.47-107.126-4.522
	c-94.8-7.089-120.364-18.877-127.166-25.274c-3.75-3.526-5.616-8.08-5.705-13.92c-0.36-23.43,27.928-60.583,45.843-78.498
	c7.761-7.761,23.227-18.984,52.834-28.377c36.043-11.435,83.59-17.233,141.319-17.233s105.276,5.798,141.319,17.233
	c29.607,9.394,45.073,20.617,52.834,28.377c17.915,17.915,46.202,55.068,45.843,78.498
	C495.907,353.987,494.041,358.54,490.292,362.066z"/>
<path d="M427.837,176.084c7.399,0,11.996-7.659,11.996-19.989s-4.597-19.989-11.996-19.989s-11.996,7.659-11.996,19.989
	S420.438,176.084,427.837,176.084z"/>
<path d="M240.015,343.909h-7.992c-4.418,0-8,3.582-8,8s3.582,8,8,8h7.992c4.418,0,8-3.582,8-8S244.434,343.909,240.015,343.909z"/>
<path d="M279.977,343.909h-7.992c-4.418,0-8,3.582-8,8s3.582,8,8,8h7.992c4.418,0,8-3.582,8-8S284.396,343.909,279.977,343.909z"/>
</svg>